<?xml version="1.0" encoding="utf-8"?>
<!-- Generator: Adobe Illustrator 21.0.2, SVG Export Plug-In . SVG Version: 6.00 Build 0)  -->
<svg version="1.1" id="Camada_1" xmlns="http://www.w3.org/2000/svg" xmlns:xlink="http://www.w3.org/1999/xlink" x="0px" y="0px"
	 viewBox="0 0 136 136" style="enable-background:new 0 0 136 136;" xml:space="preserve">
<style type="text/css">
	.st0{fill:#F9F9E5;}
	.st1{fill:#DFE6CE;}
	.st2{fill:#F49294;}
	.st3{fill:#F17171;}
</style>
<g>
	<path class="st0" d="M8,100c2.8,3.3,7.7,3.8,11.1,1c2.8-2.3,3.6-6.2,2.1-9.4l18.1-2.8l-1.6-10.3l-17.1,2.6
		c-0.2-1.3-0.8-2.6-1.7-3.7c-2.8-3.3-7.7-3.8-11.1-1c-3.4,2.8-3.8,7.7-1,11.1c0.5,0.7,1.2,1.2,1.8,1.6C5.6,92.1,5.3,96.8,8,100z"/>
	<path class="st1" d="M7.9,100c-0.4-2-0.5-4,0.2-6c0.3-1,0.8-1.9,1.3-2.8c-0.4-1.1-1-2.4-1.1-3.5c-0.8-7.1,7.6-10.8,12.4-5.6
		c0.8,0.9,1.5,1.9,2.4,2.7c1.8-0.5,4.2-1.4,5.8-1.6c2-0.3,3.9-1,6-0.6c1.3,0.2,2.6,0.8,3.6,1.5l-0.8-5.4l-17.1,2.6
		c-0.2-1.3-0.8-2.6-1.7-3.7c-2.8-3.3-7.7-3.8-11.1-1c-3.4,2.8-3.8,7.7-1,11.1c0.5,0.7,1.2,1.2,1.8,1.6C5.6,92.1,5.3,96.8,7.9,100z"
		/>
	<path class="st2" d="M122.9,89.6c0,0-11,13.3-42,13.1c-31-0.2-32.8-14.8-52.6-10c0,0,3.2-2.7,2.6-5l-6.9-0.2l4.9-4.1
		c0,0-5-5.7-8.2-4.3c0,0,7.5-2.6,10.7-1.1c3.3,1.4-2.4-19.8,35.6-42L122.9,89.6z"/>
	<path class="st3" d="M116.7,86.7c-12.8,14.4-34.4,13.6-51.6,8.5c-8.4-2.5-16.8-6-24.7-9.8c-0.5-0.2-5.7-2.5-3-1.5
		c-1.1-0.4-2.2-0.9-3.4-1.2c2,0.7-4.7,0.4-1.9-0.1c-1.1,0.2-2.3,0.4-3.4,0.5c0.1,0.1,0.2,0.2,0.2,0.2l-4.9,4.1l6.9,0.2
		c0.6,2.3-2.6,5-2.6,5c19.9-4.8,21.6,9.8,52.6,10c31,0.2,42-13.1,42-13.1l-4.8-4.6C117.6,85.6,117.2,86.1,116.7,86.7z"/>
	<g>
		<path class="st2" d="M112.3,91.8c-10.4,0.1-22.4-7.9-28-15.7c-1.8-2.5-4.4-5.3-7.1-8.3C70.6,60.6,63,52.4,63.5,45
			c0.2-3,1.6-5.6,4.4-8c3.5-3,7.4-4.5,11.6-4.6c9.6-0.1,21.1,6.9,35.2,21.5c10.4,10.7,11,21.2,10.8,25.2c-0.2,4.2-1.6,7.7-3.6,9.3
			C119.3,90.7,116.1,91.8,112.3,91.8L112.3,91.8z"/>
		<path class="st3" d="M79.5,33.9c9.1-0.1,20.3,6.8,34.2,21.1c10,10.3,10.6,20.3,10.3,24.1c-0.2,4.5-1.7,7.2-3.1,8.3
			c-2.4,2-5.3,3-8.8,3c-9.8,0.1-21.6-7.8-26.8-15.1c-1.8-2.6-4.4-5.4-7.2-8.4c-6.1-6.7-13.7-15-13.3-21.7c0.1-2.5,1.4-4.8,3.9-7
			C72.1,35.3,75.6,33.9,79.5,33.9L79.5,33.9z M79.5,31c-4.4,0.1-8.6,1.5-12.5,4.9c-15.1,13,8.4,30.1,16.1,41
			c5.7,8.1,18.3,16.5,29.2,16.3c3.8-0.1,7.5-1.2,10.6-3.7c5.7-4.7,7.3-21.8-7.1-36.6C105.2,42,91.9,30.8,79.5,31L79.5,31z"/>
	</g>
	<ellipse transform="matrix(0.848 -0.5301 0.5301 0.848 -21.7738 67.8233)" class="st0" cx="107.3" cy="71.9" rx="5" ry="9.3"/>
</g>
</svg>
