<?xml version="1.0" encoding="utf-8"?>
<!-- Generator: Adobe Illustrator 21.0.2, SVG Export Plug-In . SVG Version: 6.00 Build 0)  -->
<svg version="1.1" id="nuvem01" xmlns="http://www.w3.org/2000/svg" xmlns:xlink="http://www.w3.org/1999/xlink" x="0px" y="0px"
	 viewBox="0 0 1252 500" style="enable-background:new 0 0 1252 500;" xml:space="preserve">
<style type="text/css">
	.st0{fill:#FFFFFF;}
	.st1{opacity:0.68;fill:#FFFFFF;enable-background:new    ;}
	.st2{opacity:0.67;fill:#FFFFFF;}
	.st3{opacity:0.8;fill:#FFFFFF;enable-background:new    ;}
</style>
<path id="nuvem" class="st0" d="M1202.6,55.2c-2.1,0-4.1,0.2-6,0.6c-1.7-17-16.1-30.3-33.6-30.3c-7.5,0-14.5,2.5-20.1,6.7
	c-4.1-4.1-9.9-6.7-16.2-6.7c-5.2,0-9.9,1.7-13.8,4.6c-4.7-2.9-10.1-4.6-16-4.6c-12.6,0-23.4,7.7-28,18.6c-4.5-2.8-9.9-4.4-15.6-4.4
	c-16.6,0-30,13.4-30,30c0,1.4,0.1,2.7,0.3,4c-7.5,4.7-12.5,13-12.5,22.5c0,14.6,11.9,26.5,26.5,26.5c4.5,0,8.8-1.1,12.5-3.2
	c3.9,6.8,11.2,11.5,19.6,11.5c7,0,13.3-3.2,17.4-8.3c4.9,3.2,10.7,5,17,5c9.5,0,18-4.2,23.7-10.9c6.2,6.5,14.9,10.6,24.6,10.6
	c10.3,0,19.5-4.6,25.7-11.8c6.3,6.1,14.9,9.8,24.3,9.8c19.4,0,35.1-15.7,35.1-35.1C1237.7,71,1222,55.2,1202.6,55.2z"/>
<path id="nuvem4" class="st1" d="M352.7,122C352.7,121.9,352.7,121.9,352.7,122c0-16.8-13.6-30.4-30.4-30.4
	c-11.4,0-21.3,6.3-26.5,15.6c-4.6-3.2-10.3-5.1-16.4-5.1c-13.7,0-25.2,9.7-28,22.5c-1.5-0.2-3-0.4-4.6-0.4
	c-15.6,0-28.2,12.6-28.2,28.2s12.6,28.2,28.2,28.2c5.5,0,10.7-1.6,15.1-4.4c3.9,4.9,9.9,8.1,16.7,8.1c6.2,0,11.8-2.7,15.7-7
	c4.5,4.3,10.5,7,17.2,7c8.6,0,16.2-4.4,20.7-11.1c5.2,4.6,11.9,7.4,19.4,7.4c16.2,0,29.3-13.1,29.3-29.3
	C380.9,135.4,368.4,122.5,352.7,122z"/>
<path id="nuvem3" class="st2" d="M137.1,358.7c-4,0-7.7,1.1-10.9,2.9c-0.7-12.2-10.9-21.9-23.3-21.9c-7.6,0-14.4,3.7-18.6,9.3
	c-3.8-5.6-10.2-9.3-17.5-9.3c-11.4,0-20.7,9.1-21,20.5c-3.5-2.1-7.5-3.3-11.8-3.3c-12.6,0-22.9,10.2-22.9,22.9c0,0.8,0,1.6,0.1,2.4
	c-4.8,2.9-8.1,8.2-8.1,14.3c0,9.2,7.5,16.7,16.7,16.7c2.1,0,4.2-0.4,6.1-1.2c3,4.7,8.2,7.9,14.2,7.9c4.9,0,9.3-2.1,12.4-5.5
	c2.1,0.6,4.4,1,6.8,1c3.3,0,6.4-0.7,9.2-1.9c4.3,3.6,9.9,5.8,16,5.8c8.7,0,16.4-4.5,20.8-11.3c2.5,0.9,5.1,1.4,7.9,1.4
	c6.9,0,13.1-3.1,17.2-8c2.2,0.7,4.5,1.1,6.9,1.1c12.1,0,22-9.8,22-22C159.1,368.6,149.3,358.7,137.1,358.7z"/>
<path id="nuvem2" class="st3" d="M868.4,208.2c0.9-3.2,1.2-6.6,0.7-10.1c-1.8-13.6-14-23.2-27.5-21.9c-4.6-9.5-14.9-15.5-25.9-14.1
	c-9.7,1.3-17.4,7.9-20.5,16.6c-2.5-0.5-5.1-0.7-7.8-0.3c-9.7,1.3-17.2,8.4-19.4,17.4c-0.5,0-1,0.1-1.5,0.1
	c-13.7,1.8-23.3,14.3-21.5,27.9c1.8,13.7,14.3,23.3,27.9,21.5c1.2-0.2,2.4-0.4,3.5-0.8c2.3,9.6,11.5,16.1,21.5,14.8
	c3.8-0.5,7.2-2.1,10-4.4c3.8,6.9,11.6,11.1,19.9,10.1c9.2-1.2,16.1-8.6,17.2-17.4c4.4,2.9,9.9,4.3,15.5,3.6
	c12.6-1.6,21.5-13.2,19.8-25.8C879.5,217.8,874.8,211.5,868.4,208.2z"/>
<path id="nuvem3_1_" class="st0" d="M598.1,285.8c-7.2-0.9-14.2,0.3-20.4,2.9c1.4-22.3-15-42.1-37.4-44.8
	c-13.8-1.7-26.9,3.6-35.7,12.8c-5.7-11-16.5-19.1-29.7-20.7c-20.7-2.5-39.5,12-42.5,32.6c-5.9-4.6-12.9-7.6-20.7-8.6
	c-22.8-2.7-43.7,13.5-46.5,36.5c-0.2,1.4-0.3,2.9-0.3,4.4c-9.3,4.2-16.5,13.1-17.8,24.1c-2,16.7,9.9,31.9,26.6,33.9
	c3.8,0.5,7.7,0.2,11.3-0.8c4.4,9.2,13.1,16.1,24,17.4c8.9,1.1,17.3-1.8,23.7-7.3c3.7,1.5,7.8,2.8,12.1,3.3c6,0.7,11.8,0.1,17.1-1.4
	c7,7.5,16.7,12.7,27.7,14c15.8,1.9,30.7-4.6,40.2-15.9c4.3,2.2,8.9,3.7,14,4.3c12.5,1.5,24.4-2.8,32.9-10.7c3.8,1.7,7.9,3,12.3,3.5
	c21.9,2.6,42-13,44.7-35.1C635.8,308.5,620.2,288.4,598.1,285.8z"/>
</svg>
