<?xml version="1.0" encoding="utf-8"?>
<!-- Generator: Adobe Illustrator 21.0.2, SVG Export Plug-In . SVG Version: 6.00 Build 0)  -->
<svg version="1.1" id="Camada_1" xmlns="http://www.w3.org/2000/svg" xmlns:xlink="http://www.w3.org/1999/xlink" x="0px" y="0px"
	 viewBox="0 0 314 398" style="enable-background:new 0 0 314 398;" xml:space="preserve">
<style type="text/css">
	.st0{fill:#774111;}
	.st1{fill:#B47F44;}
	.st2{fill:#ADA379;}
	.st3{fill:none;stroke:#774111;stroke-width:3;stroke-miterlimit:10;}
	.st4{opacity:0.5;}
	.st5{fill:none;stroke:#FCEBDB;stroke-width:2.3787;stroke-miterlimit:10;}
	.st6{display:none;fill:#774111;}
	.st7{fill:#B47F44;stroke:#774111;stroke-width:6;stroke-miterlimit:10;}
	.st8{opacity:0.5;fill:none;stroke:#FCCDA9;stroke-width:1.5447;stroke-miterlimit:10;}
	.st9{fill:#562802;}
	.st10{fill:#FFFFFF;}
	.st11{font-family:'BebasNeueBold';}
	.st12{font-size:38.7px;}
	.st13{fill:#774111;stroke:#774111;stroke-width:5;stroke-miterlimit:10;}
	.st14{fill:#F6ED01;}
	.st15{opacity:0.5;fill:none;stroke:#FFFFFF;stroke-width:1.508;stroke-miterlimit:10;}
	.st16{opacity:0.3;clip-path:url(#SVGID_2_);fill:#FFFFFF;}
	.st17{opacity:0.3;clip-path:url(#SVGID_4_);fill:#FFFFFF;}
	.st18{opacity:0.3;clip-path:url(#SVGID_6_);fill:#FFFFFF;}
	.st19{fill:#006838;}
	.st20{fill:#74C799;}
	.st21{opacity:0.3;clip-path:url(#SVGID_8_);fill:#F8F8F8;}
	.st22{opacity:0.1;clip-path:url(#SVGID_10_);fill:#603813;}
	.st23{font-size:25.8958px;}
	.st24{fill:none;stroke:#774111;stroke-width:6;stroke-miterlimit:10;}
	.st25{fill:#F9F9E5;}
	.st26{fill:#DFE6CE;}
	.st27{fill:#F49294;}
	.st28{fill:#F17171;}
	.st29{font-family:'MyriadPro-Regular';}
	.st30{font-size:14.7632px;}
	.st31{fill:#006838;stroke:#774111;stroke-width:2;stroke-miterlimit:10;}
	.st32{opacity:0.3;clip-path:url(#SVGID_12_);fill:#F8F8F8;}
	.st33{opacity:0.1;clip-path:url(#SVGID_14_);fill:#603813;}
	.st34{font-size:36.7252px;}
</style>
<g id="finish">
	<g id="fundo">
		<g>
			<g>
				<path class="st0" d="M304.4,341.2c0,26.3-21.5,47.8-47.8,47.8H57.4c-26.3,0-47.8-21.5-47.8-47.8V95.8C9.6,69.5,31.1,48,57.4,48
					h199.2c26.3,0,47.8,21.5,47.8,47.8V341.2z"/>
			</g>
			<g>
				<path class="st1" d="M300.8,339.4c0,25.4-20.8,46.3-46.3,46.3h-195c-25.4,0-46.3-20.8-46.3-46.3V97.6
					c0-25.4,20.8-46.3,46.3-46.3h195c25.4,0,46.3,20.8,46.3,46.3V339.4z"/>
			</g>
			<g>
				<path class="st2" d="M288.7,329.9c0,22.9-18.7,41.6-41.6,41.6H66.9c-22.9,0-41.6-18.7-41.6-41.6V107.1
					c0-22.9,18.7-41.6,41.6-41.6h180.1c22.9,0,41.6,18.7,41.6,41.6V329.9z"/>
				<path class="st3" d="M288.7,329.9c0,22.9-18.7,41.6-41.6,41.6H66.9c-22.9,0-41.6-18.7-41.6-41.6V107.1
					c0-22.9,18.7-41.6,41.6-41.6h180.1c22.9,0,41.6,18.7,41.6,41.6V329.9z"/>
			</g>
			<g class="st4">
				<path class="st5" d="M300.6,338.9c0,25.4-20.8,46.1-46.1,46.1H59.6c-25.4,0-46.1-20.8-46.1-46.1V98.1C13.4,72.8,34.2,52,59.6,52
					h194.9c25.4,0,46.1,20.8,46.1,46.1V338.9z"/>
			</g>
		</g>
	</g>
	<g id="level">
		<g>
			<path class="st6" d="M286,35c0,14-11.4,25.4-25.4,25.4H53.4C39.4,60.4,28,49,28,35l0,0C28,21,39.4,9.7,53.4,9.7h207.3
				C274.6,9.7,286,21,286,35L286,35z"/>
			<path class="st7" d="M284.3,35c0,13.3-11.2,24.1-25,24.1H54.8c-13.8,0-25-10.8-25-24.1l0,0c0-13.3,11.2-24.1,25-24.1h204.5
				C273.1,10.9,284.3,21.7,284.3,35L284.3,35z"/>
			<path class="st8" d="M283.7,35c0,12.9-11.2,23.4-24.9,23.4H55.2C41.4,58.5,30.3,48,30.3,35l0,0c0-12.9,11.2-23.4,24.9-23.4h203.6
				C272.6,11.6,283.7,22.1,283.7,35L283.7,35z"/>
			<path class="st9" d="M275.7,35c0,10.2-10.4,18.5-23.3,18.5H61.7c-12.9,0-23.3-8.3-23.3-18.5l0,0c0-10.2,10.5-18.5,23.3-18.5
				h190.7C265.2,16.5,275.7,24.8,275.7,35L275.7,35z"/>
		</g>
		<path class="st0" d="M274,35c0,9.3-10.3,16.8-23,16.8H63c-12.7,0-23-7.5-23-16.8l0,0c0-9.3,10.3-16.8,23-16.8H251
			C263.7,18.3,274,25.8,274,35L274,35z"/>
		<text transform="matrix(1 0 0 1 108.7236 48.0068)" class="st10 st11 st12">LEVEL</text>
	</g>
	<g id="stars">
		<g>
			<polygon class="st13" points="81.2,85.6 90.2,103.8 110.3,106.7 95.8,120.9 99.2,140.9 81.2,131.5 63.3,140.9 66.7,120.9 
				52.2,106.7 72.2,103.8 			"/>
			<polygon class="st14" points="81.2,87.1 89.7,104.3 108.7,107.1 95,120.5 98.2,139.4 81.2,130.5 64.3,139.4 67.5,120.5 
				53.8,107.1 72.7,104.3 			"/>
			<polygon class="st15" points="81.2,88.8 89.2,105 107.1,107.6 94.1,120.2 97.2,138.1 81.2,129.7 65.1,138.1 68.2,120.2 
				55.2,107.6 73.2,105 			"/>
			<g>
				<defs>
					<polygon id="SVGID_1_" points="81.2,87.1 89.7,104.3 108.7,107.1 95,120.5 98.2,139.4 81.2,130.5 64.3,139.4 67.5,120.5 
						53.8,107.1 72.7,104.3 					"/>
				</defs>
				<clipPath id="SVGID_2_">
					<use xlink:href="#SVGID_1_"  style="overflow:visible;"/>
				</clipPath>
				<ellipse class="st16" cx="94.8" cy="88.9" rx="31.1" ry="31.1"/>
			</g>
		</g>
		<g>
			<polygon class="st13" points="157,85.6 166,103.8 186.1,106.7 171.5,120.9 175,140.9 157,131.5 139,140.9 142.5,120.9 
				127.9,106.7 148,103.8 			"/>
			<polygon class="st14" points="157,87.1 165.5,104.3 184.5,107.1 170.7,120.5 174,139.4 157,130.5 140,139.4 143.3,120.5 
				129.5,107.1 148.5,104.3 			"/>
			<polygon class="st15" points="156.9,88.8 164.9,105 182.9,107.6 169.9,120.2 173,138.1 156.9,129.7 140.9,138.1 144,120.2 
				131,107.6 148.9,105 			"/>
			<g>
				<defs>
					<polygon id="SVGID_3_" points="157,87.1 165.5,104.3 184.5,107.1 170.7,120.5 174,139.4 157,130.5 140,139.4 143.3,120.5 
						129.5,107.1 148.5,104.3 					"/>
				</defs>
				<clipPath id="SVGID_4_">
					<use xlink:href="#SVGID_3_"  style="overflow:visible;"/>
				</clipPath>
				<ellipse class="st17" cx="170.6" cy="88.9" rx="31.1" ry="31.1"/>
			</g>
		</g>
		<g>
			<polygon class="st13" points="233,85.6 242,103.8 262.1,106.7 247.5,120.9 251,140.9 233,131.5 215,140.9 218.5,120.9 
				203.9,106.7 224,103.8 			"/>
			<polygon class="st14" points="233,87.1 241.5,104.3 260.5,107.1 246.7,120.5 250,139.4 233,130.5 216,139.4 219.3,120.5 
				205.5,107.1 224.5,104.3 			"/>
			<polygon class="st15" points="232.9,88.8 240.9,105 258.9,107.6 245.9,120.2 249,138.1 232.9,129.7 216.9,138.1 220,120.2 
				207,107.6 224.9,105 			"/>
			<g>
				<defs>
					<polygon id="SVGID_5_" points="233,87.1 241.5,104.3 260.5,107.1 246.7,120.5 250,139.4 233,130.5 216,139.4 219.3,120.5 
						205.5,107.1 224.5,104.3 					"/>
				</defs>
				<clipPath id="SVGID_6_">
					<use xlink:href="#SVGID_5_"  style="overflow:visible;"/>
				</clipPath>
				<ellipse class="st18" cx="246.6" cy="88.9" rx="31.1" ry="31.1"/>
			</g>
		</g>
	</g>
	<g id="quantos">
		<g>
			<g>
				<g>
					<g>
						<path class="st0" d="M249,194.8c0,6.7-3.7,12.2-8.3,12.2h-95.5c-4.6,0-8.3-5.5-8.3-12.2v-7.9c0-6.7,3.7-12.2,8.3-12.2h95.5
							c4.6,0,8.3,5.5,8.3,12.2V194.8z"/>
						<path class="st19" d="M246.7,194.3c0,5.8-3.6,10.6-8,10.6h-91.6c-4.4,0-8-4.7-8-10.6v-6.9c0-5.8,3.6-10.6,8-10.6h91.6
							c4.4,0,8,4.7,8,10.6V194.3z"/>
						<path class="st20" d="M245.5,194.1c0,5.5-3.5,9.9-7.8,9.9h-89.6c-4.3,0-7.8-4.4-7.8-9.9v-6.4c0-5.5,3.5-9.9,7.8-9.9h89.6
							c4.3,0,7.8,4.4,7.8,9.9V194.1z"/>
						<g>
							<defs>
								<path id="SVGID_7_" d="M245.5,194.1c0,5.5-3.5,9.9-7.8,9.9h-89.6c-4.3,0-7.8-4.4-7.8-9.9v-6.4c0-5.5,3.5-9.9,7.8-9.9h89.6
									c4.3,0,7.8,4.4,7.8,9.9V194.1z"/>
							</defs>
							<clipPath id="SVGID_8_">
								<use xlink:href="#SVGID_7_"  style="overflow:visible;"/>
							</clipPath>
							<path class="st21" d="M139.2,200c0,0-2.6-16.2,12-18.1c14.7-1.9,94.4-1.9,101.5,2.3c7.1,4.1-10.9-17.3-12.4-17.3
								c-1.5,0-104.5,1.1-104.5,1.1L139.2,200z"/>
						</g>
						<g>
							<defs>
								<path id="SVGID_9_" d="M245.5,194.1c0,5.5-3.5,9.9-7.8,9.9h-89.6c-4.3,0-7.8-4.4-7.8-9.9v-6.4c0-5.5,3.5-9.9,7.8-9.9h89.6
									c4.3,0,7.8,4.4,7.8,9.9V194.1z"/>
							</defs>
							<clipPath id="SVGID_10_">
								<use xlink:href="#SVGID_9_"  style="overflow:visible;"/>
							</clipPath>
							<path class="st22" d="M139.2,201.5c0,0,82.7-0.4,95.5-1.1c12.8-0.8,12.8-9.8,12.8-9.8c1.9-2.3-1.5,18.4-4.1,18.8
								c-2.6,0.4-101.5-0.8-101.5-0.8L139.2,201.5z"/>
						</g>
					</g>
					<text transform="matrix(1 0 0 1 186.2816 199.5693)" class="st10 st11 st23">0</text>
				</g>
			</g>
		</g>
		<g>
			<path class="st24" d="M120.7,182c-5.3-5.5-12-11.1-18.2-11c-2.2,0-4.3,0.8-6.3,2.5c-19.1,11.2-16.3,21.8-17.9,21.1
				c-1.6-0.7-5.4,0.6-5.4,0.6c0.8-0.3,1.7,0.1,2.6,0.7l-2.6,0.4c-0.1-0.7-0.4-1.3-0.8-1.8c-1.4-1.7-3.9-1.9-5.6-0.5
				c-1.7,1.4-1.9,3.9-0.5,5.6c0.3,0.3,0.6,0.6,0.9,0.8c-0.2,0.2-0.4,0.4-0.5,0.6c-0.1,0.1-0.1,0.2-0.2,0.3c-0.1,0.1-0.1,0.2-0.2,0.3
				c-0.1,0.2-0.2,0.4-0.2,0.6c0,0,0,0.1,0,0.1c-0.3,1.2-0.1,2.5,0.8,3.5c1.4,1.7,3.9,1.9,5.6,0.5c1.4-1.2,1.8-3.1,1.1-4.7l4.6-0.7
				c-0.4,0.7-1,1.2-1,1.2c10-2.4,10.9,4.9,26.4,5c15.6,0.1,21.1-6.6,21.1-6.6C127.1,198,127.9,189.4,120.7,182z"/>
			<g>
				<path class="st25" d="M66.5,205.6c1.4,1.7,3.9,1.9,5.6,0.5c1.4-1.2,1.8-3.1,1.1-4.7l9.1-1.4l-0.8-5.1l-8.6,1.3
					c-0.1-0.7-0.4-1.3-0.8-1.8c-1.4-1.7-3.9-1.9-5.6-0.5c-1.7,1.4-1.9,3.9-0.5,5.6c0.3,0.3,0.6,0.6,0.9,0.8
					C65.3,201.7,65.2,204,66.5,205.6z"/>
				<path class="st26" d="M66.5,205.6c-0.2-1-0.2-2,0.1-3c0.2-0.5,0.4-1,0.7-1.4c-0.2-0.6-0.5-1.2-0.6-1.8c-0.4-3.6,3.8-5.4,6.2-2.8
					c0.4,0.5,0.8,0.9,1.2,1.4c0.9-0.2,2.1-0.7,2.9-0.8c1-0.1,2-0.5,3-0.3c0.7,0.1,1.3,0.4,1.8,0.8l-0.4-2.7l-8.6,1.3
					c-0.1-0.7-0.4-1.3-0.8-1.8c-1.4-1.7-3.9-1.9-5.6-0.5c-1.7,1.4-1.9,3.9-0.5,5.6c0.3,0.3,0.6,0.6,0.9,0.8
					C65.3,201.6,65.2,204,66.5,205.6z"/>
				<path class="st27" d="M124.2,200.4c0,0-5.5,6.7-21.1,6.6c-15.6-0.1-16.5-7.4-26.4-5c0,0,1.6-1.3,1.3-2.5l-3.5-0.1l2.5-2
					c0,0-2.5-2.9-4.1-2.2c0,0,3.7-1.3,5.4-0.6c1.6,0.7-1.2-9.9,17.9-21.1L124.2,200.4z"/>
				<path class="st28" d="M121.2,198.9c-6.5,7.2-17.3,6.8-25.9,4.3c-4.2-1.3-8.4-3-12.4-4.9c-0.3-0.1-2.9-1.2-1.5-0.7
					c-0.6-0.2-1.1-0.4-1.7-0.6c1,0.3-2.4,0.2-1,0c-0.6,0.1-1.1,0.2-1.7,0.3c0.1,0.1,0.1,0.1,0.1,0.1l-2.5,2l3.5,0.1
					c0.3,1.2-1.3,2.5-1.3,2.5c10-2.4,10.9,4.9,26.4,5c15.6,0.1,21.1-6.6,21.1-6.6l-2.4-2.3C121.6,198.4,121.4,198.6,121.2,198.9z"/>
				<g>
					<path class="st27" d="M118.9,201.5c-5.2,0.1-11.3-4-14.1-7.9c-0.9-1.3-2.2-2.7-3.6-4.2c-3.3-3.6-7.1-7.7-6.9-11.4
						c0.1-1.5,0.8-2.8,2.2-4c1.7-1.5,3.7-2.3,5.8-2.3c4.8-0.1,10.6,3.5,17.7,10.8c5.2,5.4,5.5,10.6,5.4,12.7
						c-0.1,2.1-0.8,3.9-1.8,4.7C122.5,200.9,120.8,201.5,118.9,201.5L118.9,201.5z"/>
					<path class="st28" d="M102.5,172.4c4.6-0.1,10.2,3.4,17.2,10.6c5,5.2,5.3,10.2,5.2,12.1c-0.1,2.2-0.9,3.6-1.5,4.2
						c-1.2,1-2.7,1.5-4.4,1.5c-4.9,0.1-10.8-3.9-13.5-7.6c-0.9-1.3-2.2-2.7-3.6-4.2c-3.1-3.4-6.9-7.5-6.7-10.9
						c0.1-1.3,0.7-2.4,2-3.5C98.7,173.1,100.5,172.4,102.5,172.4L102.5,172.4z M102.5,170.9c-2.2,0-4.3,0.8-6.3,2.5
						c-7.6,6.6,4.2,15.1,8.1,20.6c2.9,4.1,9.2,8.3,14.7,8.2c1.9,0,3.8-0.6,5.3-1.9c2.9-2.4,3.7-11-3.5-18.4
						C115.4,176.5,108.7,170.9,102.5,170.9L102.5,170.9z"/>
				</g>
				
					<ellipse transform="matrix(0.848 -0.5301 0.5301 0.848 -83.791 90.8363)" class="st25" cx="116.4" cy="191.5" rx="2.5" ry="4.7"/>
			</g>
		</g>
	</g>
	<text id="text" transform="matrix(1 0 0 1 36.874 247.8281)"><tspan x="0" y="0" class="st10 st29 st30">PARABENS VOCE ACABOU DE MATAR 5</tspan><tspan x="21.6" y="17.7" class="st10 st29 st30">PORCOS FOFINHOS INOCENTES,</tspan><tspan x="25.2" y="35.4" class="st10 st29 st30">CONTINUE FAZENDO MERDA :)</tspan></text>
	<g id="next">
		<path class="st31" d="M233.3,333.8c0,8.3-5.1,15-11.3,15H92c-6.3,0-11.3-6.7-11.3-15V324c0-8.3,5.1-15,11.3-15H222
			c6.3,0,11.3,6.7,11.3,15V333.8z"/>
		<path class="st20" d="M231.6,333.4c0,7.7-5,14-11.1,14h-127c-6.1,0-11.1-6.3-11.1-14v-9.1c0-7.7,5-14,11.1-14h127
			c6.1,0,11.1,6.3,11.1,14V333.4z"/>
		<g>
			<defs>
				<path id="SVGID_11_" d="M231.6,333.4c0,7.7-5,14-11.1,14h-127c-6.1,0-11.1-6.3-11.1-14v-9.1c0-7.7,5-14,11.1-14h127
					c6.1,0,11.1,6.3,11.1,14V333.4z"/>
			</defs>
			<clipPath id="SVGID_12_">
				<use xlink:href="#SVGID_11_"  style="overflow:visible;"/>
			</clipPath>
			<path class="st32" d="M80.8,341.8c0,0-3.7-22.9,17.1-25.6c20.8-2.7,133.9-2.7,144,3.2c10.1,5.9-15.5-24.5-17.6-24.5
				c-2.1,0-148.3,1.6-148.3,1.6L80.8,341.8z"/>
		</g>
		<g>
			<defs>
				<path id="SVGID_13_" d="M231.6,333.4c0,7.7-5,14-11.1,14h-127c-6.1,0-11.1-6.3-11.1-14v-9.1c0-7.7,5-14,11.1-14h127
					c6.1,0,11.1,6.3,11.1,14V333.4z"/>
			</defs>
			<clipPath id="SVGID_14_">
				<use xlink:href="#SVGID_13_"  style="overflow:visible;"/>
			</clipPath>
			<path class="st33" d="M80.8,344c0,0,117.3-0.5,135.5-1.6c18.1-1.1,18.1-13.9,18.1-13.9c2.7-3.2-2.1,26.1-5.9,26.7
				c-3.7,0.5-144-1.1-144-1.1L80.8,344z"/>
		</g>
		<text transform="matrix(1 0 0 1 122.8466 341.2021)" class="st10 st11 st34">next</text>
	</g>
</g>
</svg>
