<?xml version="1.0" encoding="utf-8"?>
<!-- Generator: Adobe Illustrator 21.0.2, SVG Export Plug-In . SVG Version: 6.00 Build 0)  -->
<svg version="1.1" id="porco-morto-head" xmlns="http://www.w3.org/2000/svg" xmlns:xlink="http://www.w3.org/1999/xlink" x="0px"
	 y="0px" viewBox="0 0 200 200" style="enable-background:new 0 0 200 200;" xml:space="preserve">
<style type="text/css">
	.st0{fill:#F78381;}
	.st1{fill:#F9A2A1;}
	.st2{fill:#424242;}
	.st3{fill:#FFFFFF;}
	.st4{fill:#F56462;}
	.st5{opacity:0.2;}
	.st6{fill:none;stroke:#E23737;stroke-width:15;stroke-linecap:round;stroke-linejoin:round;stroke-miterlimit:10;}
</style>
<g id="face">
	<g>
		<g>
			<path class="st0" d="M132,44.5c0,0,4.6-7.2,14.6-2.6c10,4.6,15,16.9,15,20.6c0,3.8-14.8,4.5-14.8,4.5L132,44.5z"/>
			<path class="st1" d="M141,40.4c0,0-2,5.5,2,10.2c4,4.6,11.4,13.7,12.9,18.8c1.5,5.2,4.1,7.6,6.2,5.9c2.1-1.7,3.6-12.8-3.1-23
				C152.3,42.2,142.9,40.4,141,40.4z"/>
		</g>
		<g>
			<path class="st0" d="M62.1,44.5c0,0-4.6-7.2-14.6-2.6s-15,16.9-15,20.6c0,3.8,14.8,4.5,14.8,4.5L62.1,44.5z"/>
			<path class="st1" d="M53,40.4c0,0,2,5.5-2,10.2S39.7,64.3,38.1,69.4c-1.5,5.2-4.1,7.6-6.2,5.9c-2.1-1.7-3.6-12.8,3.1-23
				S51.2,40.4,53,40.4z"/>
		</g>
	</g>
	<g>
		<path class="st1" d="M174.1,103.8c-4.8-14.8-16.9-16.2-21-28.9s-19.9-44-60.1-41.3c0,0-27.2,2.1-40.2,19.9
			c-13.1,17.9-12,29.2-23,43.3s-8.6,48.5,15.5,61.2s82.5,10.3,108-1.7C178.6,144.4,178.9,118.6,174.1,103.8z"/>
		<g>
			<g>
				<circle class="st2" cx="70.6" cy="82.9" r="8.5"/>
				<circle class="st3" cx="67.6" cy="79.9" r="3.2"/>
			</g>
			<g>
				<circle class="st2" cx="121.1" cy="80.5" r="8.5"/>
				<circle class="st3" cx="118.1" cy="77.5" r="3.2"/>
			</g>
			<path class="st0" d="M100,92.3c0,0-20.2,0.7-26.8,13.6c-6.5,12.9,5.3,19.6,16.3,20.5s34.4-1,38.5-11
				C132.2,105.4,119,90.4,100,92.3z"/>
			<ellipse class="st4" cx="88.5" cy="110.1" rx="5" ry="8.1"/>
			<ellipse class="st4" cx="109.9" cy="110.1" rx="5" ry="8.1"/>
			<g>
				<path class="st4" d="M90.8,132.6c5.4,8.3,18.1,6.4,23-1.3c0.5-0.7-0.7-1.3-1.1-0.7c-4.4,6.9-15.9,8.7-20.8,1.3
					C91.5,131.2,90.4,131.9,90.8,132.6L90.8,132.6z"/>
			</g>
			<g class="st5">
				<path class="st3" d="M83.5,40.4c0,0-2.8,0.8-6.7,2.7c-1,0.4-2,1-3.1,1.6c-1.1,0.7-2.2,1.3-3.3,2c-0.6,0.4-1.1,0.7-1.7,1.1
					c-0.5,0.4-1.1,0.8-1.7,1.3c-1.2,0.8-2.2,1.8-3.3,2.7s-2.1,2-3.1,2.9c-1,1-1.9,2.1-2.8,3.1c-0.8,1.1-1.7,2.1-2.4,3
					c-0.4,0.5-0.7,1-1.1,1.5c-0.3,0.5-0.7,0.9-1,1.4c-0.6,0.9-1.2,1.7-1.7,2.5c-0.5,0.8-0.9,1.4-1.2,2c-0.7,1.1-1.1,1.7-1.1,1.7
					s0.3-0.7,0.7-1.9c0.2-0.6,0.5-1.3,0.9-2.2c0.3-0.8,0.8-1.7,1.4-2.7c0.6-1,1-2.1,1.8-3.1c0.7-1,1.4-2.2,2.3-3.3
					c0.9-1.1,1.8-2.2,2.8-3.3c1.1-1,2.1-2.1,3.2-3.1c1.2-0.9,2.3-1.9,3.5-2.8c0.6-0.4,1.2-0.8,1.8-1.2s1.2-0.7,1.8-1.1
					c1.2-0.8,2.4-1.3,3.6-1.8c1.2-0.5,2.3-1,3.3-1.3c0.5-0.2,1-0.3,1.5-0.5c0.5-0.1,1-0.3,1.4-0.4c0.9-0.2,1.6-0.4,2.3-0.5
					C82.8,40.4,83.5,40.4,83.5,40.4z"/>
			</g>
			<g class="st5">
				<path class="st3" d="M88.3,96.8c0.9-0.4,1.8-0.7,2.7-1c0.9-0.3,1.8-0.5,2.7-0.7c0.9-0.2,1.8-0.3,2.6-0.4
					c0.8-0.1,1.6-0.2,2.4-0.2c2.9-0.1,4.8,0.4,4.8,0.4s-1.9,0.2-4.7,0.8c-0.7,0.1-1.4,0.4-2.2,0.5c-0.8,0.2-1.6,0.4-2.4,0.7
					c-0.8,0.3-1.7,0.5-2.5,0.9c-0.9,0.3-1.7,0.7-2.6,1s-1.7,0.8-2.5,1.1c-0.8,0.4-1.6,0.8-2.4,1.2c-0.8,0.4-1.5,0.9-2.2,1.3
					s-1.3,0.8-1.9,1.2c-0.6,0.4-1.2,0.7-1.6,1.1c-0.5,0.3-0.9,0.6-1.2,0.9c-0.7,0.5-1.1,0.8-1.1,0.8s0.3-0.4,0.8-1
					c0.3-0.3,0.6-0.7,1-1.2s0.9-0.9,1.4-1.4s1.1-1.1,1.8-1.6c0.7-0.5,1.3-1.1,2.1-1.6c0.8-0.5,1.6-1,2.4-1.5"/>
			</g>
			<g class="st5">
				<path class="st3" d="M46.5,93.7c0,0-0.4,0.2-1.1,0.6c-0.4,0.2-0.8,0.5-1.3,0.7c-0.5,0.3-1,0.6-1.6,1c-0.6,0.4-1.2,0.8-1.8,1.2
					c-0.6,0.4-1.3,1-1.9,1.5c-0.6,0.6-1.3,1.1-1.9,1.7c-0.6,0.6-1.3,1.2-1.9,1.9c-0.3,0.3-0.6,0.6-0.9,1c-0.3,0.3-0.5,0.7-0.8,1
					c-0.6,0.7-1,1.4-1.5,2.1s-0.9,1.4-1.2,2.1c-0.2,0.3-0.4,0.7-0.6,1s-0.3,0.6-0.4,1c-0.3,0.6-0.6,1.2-0.8,1.7
					c-0.2,0.5-0.4,1-0.5,1.4c-0.3,0.8-0.5,1.2-0.5,1.2s0-0.5,0.1-1.3c0-0.4,0.1-0.9,0.2-1.5c0.1-0.6,0.3-1.2,0.4-1.9
					c0.1-0.3,0.2-0.7,0.3-1.1c0.1-0.4,0.3-0.7,0.4-1.1c0.3-0.8,0.6-1.6,1.1-2.3c0.5-0.8,0.9-1.6,1.5-2.3c0.3-0.4,0.6-0.8,0.9-1.1
					c0.3-0.4,0.6-0.7,0.9-1.1c0.6-0.7,1.4-1.3,2.1-2c0.7-0.6,1.5-1.1,2.2-1.7c0.8-0.5,1.5-1,2.2-1.3c0.4-0.2,0.7-0.4,1-0.5
					c0.4-0.2,0.7-0.3,1-0.4c0.6-0.3,1.3-0.5,1.8-0.7s1-0.3,1.4-0.4C46.1,93.7,46.5,93.7,46.5,93.7z"/>
			</g>
		</g>
	</g>
</g>
<g id="x">
	<path class="st6" d="M33.3,31.9c18.5,26.8,39.2,47.4,62,68.6s47.5,40.5,67.1,64.7"/>
	<path class="st6" d="M166.7,26.9c-24.7,28.9-56.5,71.6-82.2,95.8c-16.2,15.3-35.3,29.4-42.8,50.4"/>
</g>
</svg>
