<?xml version="1.0" encoding="utf-8"?>
<!-- Generator: Adobe Illustrator 21.0.2, SVG Export Plug-In . SVG Version: 6.00 Build 0)  -->
<svg version="1.1" id="Camada_1" xmlns="http://www.w3.org/2000/svg" xmlns:xlink="http://www.w3.org/1999/xlink" x="0px" y="0px"
	 viewBox="0 0 200 200" style="enable-background:new 0 0 200 200;" xml:space="preserve">
<style type="text/css">
	.st0{fill:#D86C6C;}
	.st1{fill:#F78381;}
	.st2{opacity:0.2;}
	.st3{fill:#FFFFFF;}
	.st4{fill:#F9A2A1;}
	.st5{fill:#424242;}
	.st6{fill:#F56462;}
</style>
<g>
	<g id="pata-fundo2">
		<path class="st0" d="M137,148.2c3.1,1.3,4.6,4.8,3.3,7.9c-3.7,9-10.8,25.5-12,26.1c-1.6,0.8-9.1-1.8-8.8-4.8
			c0.2-2.2,6.2-17.4,9.6-25.9C130.3,148.4,133.8,146.9,137,148.2L137,148.2z"/>
	</g>
	<g id="pata-fundo1">
		<path class="st0" d="M91.1,166.4c-4.9,8.5-12.6,20-13.8,20.3c-2,0.5-8.6-3.2-8.6-4.6c0-0.9,5.4-16.3,9-26.7
			c0.7-2,3.8-14.5,12.7-9.8C102.9,152.3,95.8,158.3,91.1,166.4z"/>
	</g>
	<g id="corpo">
		<g id="panca">
			<path class="st1" d="M160.8,97c0,0-107.8,6.4-100.3,39.5c6.4,28.3,26.9,34.8,32.6,36.1c0.8,0.2,1.7,0.3,2.5,0.3
				c2.5,0.1,8.9,0.2,12.4,0.2c0.4,0,0.9,0,1.5,0c3-0.2,9.8-0.6,16.3-2c7.1-1.5,15.1-3.4,17.5-4c-0.1,0-0.1,0-0.2,0
				c0.1,0,0.1,0,0.2,0c0.5-0.1,0.7-0.2,0.7-0.2s2.6-0.7,6-1.7c8.3-2.7,15.7-7.9,20.6-15.2c3.1-4.7,5.8-10.9,5.7-19.4
				C176.1,106.9,160.8,97,160.8,97z"/>
			<g class="st2">
				<path class="st3" d="M168.7,115.4c0.2,0.5,0.3,1,0.5,1.5c0.2,0.5,0.4,1,0.6,1.6c0.2,0.5,0.4,1.1,0.6,1.6
					c0.2,0.5,0.4,1.1,0.5,1.6c0.2,0.5,0.4,1.1,0.5,1.6c0.1,0.5,0.3,1,0.4,1.5c0.1,0.5,0.3,0.9,0.4,1.4c0.1,0.4,0.2,0.8,0.3,1.2
					c0.1,0.4,0.1,0.7,0.2,0.9c0.1,0.5,0.2,0.8,0.2,0.8s0.1-0.3,0.2-0.8c0.1-0.5,0.2-1.3,0.3-2.2c0-0.5,0-1,0-1.5
					c0-0.5-0.1-1.1-0.2-1.6c-0.2-1.1-0.5-2.3-0.8-3.5c-0.2-0.6-0.4-1.1-0.6-1.7c-0.2-0.6-0.5-1.1-0.8-1.6c-0.5-1-1.1-1.9-1.6-2.6
					c-1.1-1.5-2-2.3-2-2.3s0.4,1.2,1,2.8C168.4,114.5,168.6,115,168.7,115.4z"/>
			</g>
		</g>
		<g id="rabo">
			<path class="st1" d="M172.5,115.9c1.3-2.6,4.1-4.6,6.9-5.3c2.6-0.6,4.8,0.2,5.8,2.8c1.2,3.2-1.7,4.8-3.6,1.9
				c-2.5-3.8-1.2-11.6,4.3-11.4c2,0.1,4,1,5.7,2.1c1.4,0.9,2.7-1.3,1.3-2.2c-3.8-2.5-9.6-3.9-12.8,0.2c-3.2,4-3.3,15.5,3.7,16.1
				c6,0.5,4.5-8.3,1.5-10.7c-4.8-3.8-12.5,0.5-14.9,5.3C169.5,116,171.7,117.3,172.5,115.9L172.5,115.9z"/>
		</g>
	</g>
	<path id="pata-tras-tras" class="st1" d="M152.9,130.6c-4.4,1.2-11.3,4.2-11.9,9.5c-1.8,15.7,5.9,29.3,5.9,29.3s4.2,10.6,5.6,13.5
		c1.3,2.8,10.7-0.8,9.9-3.2c-0.7-2.2-2.5-15.8-0.6-20.3C166.9,147.5,161.6,128.2,152.9,130.6z"/>
	<g id="pata-frente-frente">
		<path class="st1" d="M101.1,185.7c1.4,3.4,10.6-0.4,10.8-2.6c0.2-1.6-4.5-18.5-7.2-28c-1-3.5-4.7-5.5-8.2-4.3
			c-0.8,0.3-1.7,0.6-2.5,0.8c-4.3,1.4-6.4,6.3-4.4,10.4C93.9,170.6,100.2,183.5,101.1,185.7z"/>
	</g>
	<g id="face">
		<g>
			<g>
				<path class="st1" d="M119.8,18.4c0,0,4.6-7.2,14.6-2.6c10,4.6,15,16.9,15,20.6c0,3.8-14.8,4.5-14.8,4.5L119.8,18.4z"/>
				<path class="st4" d="M128.8,14.3c0,0-2,5.5,2,10.2c4,4.6,11.4,13.7,12.9,18.8c1.5,5.2,4.1,7.6,6.2,5.9c2.1-1.7,3.6-12.8-3.1-23
					C140.1,16.1,130.7,14.3,128.8,14.3z"/>
			</g>
			<g>
				<path class="st1" d="M49.9,18.4c0,0-4.6-7.2-14.6-2.6c-10,4.6-15,16.9-15,20.6c0,3.8,14.8,4.5,14.8,4.5L49.9,18.4z"/>
				<path class="st4" d="M40.8,14.3c0,0,2,5.5-2,10.2S27.5,38.2,25.9,43.3c-1.5,5.2-4.1,7.6-6.2,5.9c-2.1-1.7-3.6-12.8,3.1-23
					S39,14.3,40.8,14.3z"/>
			</g>
		</g>
		<g>
			<path class="st4" d="M161.9,77.7c-4.8-14.8-16.9-16.2-21-28.9S121,4.8,80.8,7.5c0,0-27.2,2.1-40.2,19.9
				c-13.1,17.9-12,29.2-23,43.3c-11,14.1-8.6,48.5,15.5,61.2c24.1,12.7,82.5,10.3,108-1.7C166.4,118.3,166.7,92.5,161.9,77.7z"/>
			<g>
				<g>
					<circle class="st5" cx="58.4" cy="56.8" r="8.5"/>
					<circle class="st3" cx="55.4" cy="53.8" r="3.2"/>
				</g>
				<g>
					<circle class="st5" cx="108.9" cy="54.4" r="8.5"/>
					<circle class="st3" cx="105.9" cy="51.4" r="3.2"/>
				</g>
				<path class="st1" d="M87.8,66.2c0,0-20.2,0.7-26.8,13.6c-6.5,12.9,5.3,19.6,16.3,20.5c11,0.9,34.4-1,38.5-11
					C120,79.3,106.8,64.3,87.8,66.2z"/>
				<ellipse class="st6" cx="76.3" cy="84" rx="5" ry="8.1"/>
				<ellipse class="st6" cx="97.7" cy="84" rx="5" ry="8.1"/>
				<g>
					<path class="st6" d="M78.6,106.5c5.4,8.3,18.1,6.4,23-1.3c0.5-0.7-0.7-1.3-1.1-0.7c-4.4,6.9-15.9,8.7-20.8,1.3
						C79.3,105.1,78.2,105.8,78.6,106.5L78.6,106.5z"/>
				</g>
				<g class="st2">
					<path class="st3" d="M71.3,14.3c0,0-2.8,0.8-6.7,2.7c-1,0.4-2,1-3.1,1.6c-1.1,0.7-2.2,1.3-3.3,2c-0.6,0.4-1.1,0.7-1.7,1.1
						c-0.5,0.4-1.1,0.8-1.7,1.3c-1.2,0.8-2.2,1.8-3.3,2.7c-1.1,0.9-2.1,2-3.1,2.9c-1,1-1.9,2.1-2.8,3.1c-0.8,1.1-1.7,2.1-2.4,3
						c-0.4,0.5-0.7,1-1.1,1.5c-0.3,0.5-0.7,0.9-1,1.4c-0.6,0.9-1.2,1.7-1.7,2.5c-0.5,0.8-0.9,1.4-1.2,2c-0.7,1.1-1.1,1.7-1.1,1.7
						s0.3-0.7,0.7-1.9c0.2-0.6,0.5-1.3,0.9-2.2c0.3-0.8,0.8-1.7,1.4-2.7c0.6-1,1-2.1,1.8-3.1c0.7-1,1.4-2.2,2.3-3.3
						c0.9-1.1,1.8-2.2,2.8-3.3c1.1-1,2.1-2.1,3.2-3.1c1.2-0.9,2.3-1.9,3.5-2.8c0.6-0.4,1.2-0.8,1.8-1.2c0.6-0.4,1.2-0.7,1.8-1.1
						c1.2-0.8,2.4-1.3,3.6-1.8c1.2-0.5,2.3-1,3.3-1.3c0.5-0.2,1-0.3,1.5-0.5c0.5-0.1,1-0.3,1.4-0.4c0.9-0.2,1.6-0.4,2.3-0.5
						C70.6,14.3,71.3,14.3,71.3,14.3z"/>
				</g>
				<g class="st2">
					<path class="st3" d="M76.1,70.7c0.9-0.4,1.8-0.7,2.7-1c0.9-0.3,1.8-0.5,2.7-0.7c0.9-0.2,1.8-0.3,2.6-0.4
						c0.8-0.1,1.6-0.2,2.4-0.2c2.9-0.1,4.8,0.4,4.8,0.4s-1.9,0.2-4.7,0.8c-0.7,0.1-1.4,0.4-2.2,0.5c-0.8,0.2-1.6,0.4-2.4,0.7
						c-0.8,0.3-1.7,0.5-2.5,0.9c-0.9,0.3-1.7,0.7-2.6,1c-0.9,0.3-1.7,0.8-2.5,1.1c-0.8,0.4-1.6,0.8-2.4,1.2
						c-0.8,0.4-1.5,0.9-2.2,1.3c-0.7,0.4-1.3,0.8-1.9,1.2c-0.6,0.4-1.2,0.7-1.6,1.1c-0.5,0.3-0.9,0.6-1.2,0.9
						c-0.7,0.5-1.1,0.8-1.1,0.8s0.3-0.4,0.8-1c0.3-0.3,0.6-0.7,1-1.2c0.4-0.5,0.9-0.9,1.4-1.4c0.5-0.5,1.1-1.1,1.8-1.6
						c0.7-0.5,1.3-1.1,2.1-1.6c0.8-0.5,1.6-1,2.4-1.5"/>
				</g>
				<g class="st2">
					<path class="st3" d="M34.3,67.6c0,0-0.4,0.2-1.1,0.6c-0.4,0.2-0.8,0.5-1.3,0.7c-0.5,0.3-1,0.6-1.6,1c-0.6,0.4-1.2,0.8-1.8,1.2
						c-0.6,0.4-1.3,1-1.9,1.5c-0.6,0.6-1.3,1.1-1.9,1.7c-0.6,0.6-1.3,1.2-1.9,1.9c-0.3,0.3-0.6,0.6-0.9,1c-0.3,0.3-0.5,0.7-0.8,1
						c-0.6,0.7-1,1.4-1.5,2.1c-0.5,0.7-0.9,1.4-1.2,2.1c-0.2,0.3-0.4,0.7-0.6,1c-0.2,0.3-0.3,0.6-0.4,1c-0.3,0.6-0.6,1.2-0.8,1.7
						c-0.2,0.5-0.4,1-0.5,1.4c-0.3,0.8-0.5,1.2-0.5,1.2s0-0.5,0.1-1.3c0-0.4,0.1-0.9,0.2-1.5c0.1-0.6,0.3-1.2,0.4-1.9
						c0.1-0.3,0.2-0.7,0.3-1.1c0.1-0.4,0.3-0.7,0.4-1.1c0.3-0.8,0.6-1.6,1.1-2.3c0.5-0.8,0.9-1.6,1.5-2.3c0.3-0.4,0.6-0.8,0.9-1.1
						c0.3-0.4,0.6-0.7,0.9-1.1c0.6-0.7,1.4-1.3,2.1-2c0.7-0.6,1.5-1.1,2.2-1.7c0.8-0.5,1.5-1,2.2-1.3c0.4-0.2,0.7-0.4,1-0.5
						c0.4-0.2,0.7-0.3,1-0.4c0.6-0.3,1.3-0.5,1.8-0.7c0.5-0.2,1-0.3,1.4-0.4C33.9,67.6,34.3,67.6,34.3,67.6z"/>
				</g>
			</g>
		</g>
	</g>
</g>
</svg>
