<?xml version="1.0" encoding="utf-8"?>
<!-- Generator: Adobe Illustrator 21.0.2, SVG Export Plug-In . SVG Version: 6.00 Build 0)  -->
<svg version="1.1" xmlns="http://www.w3.org/2000/svg" xmlns:xlink="http://www.w3.org/1999/xlink" x="0px" y="0px"
	 viewBox="0 0 750 307.7" style="enable-background:new 0 0 750 307.7;" xml:space="preserve">
<style type="text/css">
	.st0{fill:#753F1B;}
	.st1{fill:#623813;}
	.st2{fill:#64BC06;}
	.st3{fill:#549606;}
	.st4{fill:#D0472D;}
	.st5{fill:#BC3726;}
	.st6{fill:#553721;}
	.st7{fill:#392615;}
	.st8{fill:#CDA780;}
	.st9{fill:#B78F6A;}
	.st10{fill:#7AD311;}
</style>
<g id="Artboard_2">
	<g>
		<g>
			<g>
				<g>
					<g>
						<path class="st0" d="M491.5,192.8c-5.5-10.4-6.7-31.6-4.6-44.3c-3.4-0.5-9.8-1.3-9.8-1.3l0,0.1c0,0-6.3,28.2-14.5,41.1
							C461.7,194.2,490.6,198.7,491.5,192.8z"/>
						<path class="st1" d="M477.2,147.1L477.2,147.1c0,0.1-3.2,14.1-7.9,26.9c4.5,2.4,10.9,3.9,17.6,2.1c-1.3-9.5-1.2-20.1,0.1-27.7
							C483.5,148,477.2,147.1,477.2,147.1z"/>
					</g>
					<g>
						<path class="st2" d="M519,161c-26.3-40.7-29.1-67.3-29.1-67.3c-10.7,20.3-41.8,51.6-47,57.4c3.2,2.7,6.7,4.1,10.4,4.2
							l-8.2,4.5c0,0,13.7,9.6,33.2,4.2c0,0,0,0,0,0c16.9,11.1,35.7,6.5,35.7,6.5l-7.6-6.6C514.9,163.9,519,161,519,161z"/>
						<path class="st3" d="M489.8,93.7c-7.7,14.6-26,34.9-37.6,47.3c6.2,2.1,19.3,5.8,29.3,2.5c0,0,12.5,9.3,30.9,6.8
							C492.1,115.7,489.8,93.7,489.8,93.7z"/>
						<path class="st2" d="M520.7,136.8c-18.7-19.6-29.7-54-29.7-54c-8.7,16.5-33.5,41.2-42.8,46.7c0,0,5.8,3.3,10.8,3.9l-5.2,2.6
							c0,0,16.1,8.2,28.3,4.3c0,0,0.1,0,0.1,0c10.5,7.4,29.9,4.7,29.9,4.7l-5.7-5.4C513.2,140.6,520.7,136.8,520.7,136.8z"/>
						<path class="st3" d="M509.1,123.7c0.4,0,0.9-0.1,1.3-0.2c-12.4-18.8-19.4-40.7-19.4-40.7c-5.7,10.7-18.1,24.9-28.7,35
							c5.1,1.5,16.3,5.5,22.9,1.3C485.2,119.2,493.2,124.6,509.1,123.7z"/>
						<path class="st2" d="M514.5,113.3c-12.5-8.9-22.2-39.6-22.2-39.6c-6.4,12.2-23.7,30.4-31.5,33.6c0,0,3.2,3.4,8,3.9l-4.5,2
							c0,0,12.6,6.1,21.3,3l0,0c7.4,5.6,24.3,3.2,24.3,3.2l-4.4-3.5C510.7,116.6,514.5,113.3,514.5,113.3z"/>
					</g>
				</g>
				<g>
					<g>
						<path class="st0" d="M533.8,202.4c-4-8.4-3.7-24.7-1.2-34.3c-2.7-0.6-7.9-1.8-7.9-1.8l0,0.1c0,0-6.8,21.1-14.3,30.3
							C509.2,201.2,532.7,206.9,533.8,202.4z"/>
						<path class="st1" d="M524.7,166.3L524.7,166.3c0,0.1-3.4,10.6-8.1,20c3.6,2.2,8.7,3.9,14.3,3c-0.5-7.4,0.2-15.5,1.7-21.2
							C529.8,167.5,524.7,166.3,524.7,166.3z"/>
					</g>
					<g>
						<path class="st2" d="M558.2,180.3c-19.3-33.3-20-53.9-20-53.9c-10,14.6-37.4,36.1-41.9,40.1c2.5,2.3,5.2,3.7,8.3,4.1l-7,2.8
							c0,0,10.7,8.5,27,5.9c0,0,0,0,0,0c13.3,9.9,28.9,7.9,28.9,7.9l-5.8-5.7C554.7,182.2,558.2,180.3,558.2,180.3z"/>
						<path class="st3" d="M538.2,126.4c-7.2,10.6-23.4,24.7-33.6,33.2c4.9,2.1,15.5,6,23.9,4.3c0,0,9.7,8.2,25,7.7
							C538.8,143.5,538.2,126.4,538.2,126.4z"/>
						<path class="st2" d="M561,161.9c-14.2-16.5-21.3-43.7-21.3-43.7c-8.1,11.9-29.9,28.9-37.9,32.3c0,0,4.5,3,8.7,3.9l-4.4,1.5
							c0,0,12.7,7.6,23,5.6c0,0,0.1,0,0.1,0c8.2,6.5,24.3,6,24.3,6l-4.3-4.6C554.6,164.3,561,161.9,561,161.9z"/>
						<path class="st3" d="M552.2,151c0.4,0,0.7,0,1,0c-9.1-15.4-13.6-32.8-13.6-32.8c-5.3,7.7-16.3,17.6-25.6,24.5
							c4.1,1.6,13.1,5.5,18.8,2.9C532.9,145.6,539.1,150.4,552.2,151z"/>
						<path class="st2" d="M557.3,143.5c-9.8-7.9-15.9-32.2-15.9-32.2c-6,8.8-21.2,21.4-27.8,23.2c0,0,2.4,2.9,6.3,3.6l-3.8,1.2
							c0,0,10,5.7,17.3,4l0,0c5.8,4.9,19.7,4.4,19.7,4.4l-3.4-3.1C554,145.6,557.3,143.5,557.3,143.5z"/>
					</g>
				</g>
				<g>
					<g>
						<path class="st0" d="M250.6,193c-8.2-6.8-15.9-23.9-18-35.1c-3.2,0.7-9.1,2-9.1,2l0,0.1c0,0,3.2,25.2-0.1,38.5
							C224.4,203.6,251.6,198.2,250.6,193z"/>
						<path class="st1" d="M223.5,159.9L223.5,159.9c0,0.1,1.6,12.7,1.4,24.7c4.8,0.5,11-0.2,16.4-3.8c-4.1-7.4-7.4-16.2-8.6-22.8
							C229.4,158.6,223.5,159.9,223.5,159.9z"/>
					</g>
					<g>
						<path class="st2" d="M265.2,158.1c-36.3-25.2-47.1-46.3-47.1-46.3c-3.2,20.1-21.2,55.8-24,62.2c3.7,1.2,7.2,1.3,10.6,0.2
							l-5.9,6.3c0,0,15.3,3.6,31-7.1c0,0,0,0,0,0c18.6,3.8,33.9-5.9,33.9-5.9l-8.8-3.1C262.5,161.8,265.2,158.1,265.2,158.1z"/>
						<path class="st3" d="M218.1,111.9c-2.3,14.5-12.3,37-18.8,50.9c6.2-0.2,19.1-1.3,27-7.2c0,0,14.1,3.8,29.7-4.2
							C227,129.3,218.1,111.9,218.1,111.9z"/>
						<path class="st2" d="M259.1,137.6c-22.8-10.2-43.5-35.1-43.5-35.1c-2.6,16.3-17,44.6-23.6,52c0,0,6.2,0.9,10.9-0.2l-3.9,3.8
							c0,0,16.9,1.7,26.6-5.4c0,0,0.1,0,0.1,0c11.7,2.8,28.2-5.6,28.2-5.6l-6.8-2.7C253.6,143.2,259.1,137.6,259.1,137.6z"/>
						<path class="st3" d="M244.6,130.5c0.4-0.2,0.7-0.3,1.1-0.6c-16.9-11.6-30.1-27.4-30.1-27.4c-1.7,10.6-8.4,26.2-14.6,37.9
							c5-0.4,16.3-0.6,20.9-6.2C221.9,134.3,230.8,136.3,244.6,130.5z"/>
						<path class="st2" d="M246.2,120.2c-14-3.4-32.2-25.7-32.2-25.7c-1.9,12.1-11.6,32.5-17.6,37.7c0,0,3.9,1.8,8.4,0.7l-3.3,3.1
							c0,0,13.1,1,20-4.3l0,0c8.4,2.3,22.7-5.1,22.7-5.1l-5.1-1.5C243.9,124.1,246.2,120.2,246.2,120.2z"/>
					</g>
				</g>
				<g>
					<g>
						<path class="st0" d="M181.9,210.4c-5.6-3.7-11.5-13.8-13.5-20.7c-1.9,0.6-5.6,1.8-5.6,1.8l0,0c0,0,3.7,15.5,2.5,24
							C166.4,218.8,182.9,213.6,181.9,210.4z"/>
						<path class="st1" d="M162.9,191.6L162.9,191.6c0,0,1.8,7.8,2.5,15.3c3,0,6.8-0.9,9.9-3.5c-3.1-4.4-5.7-9.6-6.9-13.7
							C166.5,190.4,162.9,191.6,162.9,191.6z"/>
					</g>
					<g>
						<path class="st2" d="M188.7,187.7c-24.3-13.3-32.4-25.7-32.4-25.7c-0.7,12.7-9.5,36.1-10.8,40.3c2.4,0.5,4.6,0.3,6.6-0.6
							l-3.3,4.3c0,0,9.7,1.2,18.8-6.4c0,0,0,0,0,0c11.8,1.1,20.7-5.9,20.7-5.9l-5.7-1.3C187.3,190.2,188.7,187.7,188.7,187.7z"/>
						<path class="st3" d="M156.3,162c-0.5,9.2-5.2,23.9-8.3,32.9c3.8-0.5,11.8-2.1,16.3-6.2c0,0,9,1.4,18.2-4.6
							C163.1,172.3,156.3,162,156.3,162z"/>
						<path class="st2" d="M183.6,175.4c-14.9-4.9-29.4-19-29.4-19c-0.6,10.3-7.6,28.9-11.3,33.9c0,0,3.9,0.2,6.8-0.9l-2.2,2.6
							c0,0,10.6-0.1,16.2-5.1c0,0,0.1,0,0.1,0c7.4,0.9,17.2-5.3,17.2-5.3l-4.4-1.2C180.5,179.2,183.6,175.4,183.6,175.4z"/>
						<path class="st3" d="M174.1,171.9c0.2-0.1,0.4-0.3,0.6-0.4c-11.3-6.1-20.5-15.1-20.5-15.1c-0.4,6.7-3.5,16.9-6.6,24.6
							c3.1-0.6,10.1-1.5,12.6-5.2C160.2,175.8,165.8,176.4,174.1,171.9z"/>
						<path class="st2" d="M174.4,165.4c-8.9-1.2-21.8-13.9-21.8-13.9c-0.4,7.6-5.1,21-8.5,24.6c0,0,2.5,0.9,5.2-0.1l-1.9,2.1
							c0,0,8.2-0.2,12.2-4l0,0c5.4,0.9,13.8-4.6,13.8-4.6l-3.3-0.6C173.2,168,174.4,165.4,174.4,165.4z"/>
					</g>
				</g>
				<g>
					<g>
						<path class="st0" d="M72.9,226.1c-4.3-5.1-7-16.5-7-23.7c-2,0.1-5.8,0.2-5.8,0.2l0,0c0,0-0.9,15.9-4.5,23.7
							C55.6,229.6,73,229.4,72.9,226.1z"/>
						<path class="st1" d="M60,202.6L60,202.6c0,0-0.5,8-2,15.4c2.9,0.9,6.8,1.1,10.5-0.5c-1.7-5.1-2.7-10.8-2.7-15.1
							C63.9,202.5,60,202.6,60,202.6z"/>
					</g>
					<g>
						<path class="st2" d="M85.9,206.3c-19.4-19.7-23.7-33.9-23.7-33.9c-4.3,12-19.5,31.9-21.9,35.5c2.1,1.2,4.3,1.6,6.5,1.3
							l-4.4,3.2c0,0,9,4,19.9-0.8c0,0,0,0,0,0c11,4.5,21.5,0.2,21.5,0.2l-5.1-2.9C83.8,208.2,85.9,206.3,85.9,206.3z"/>
						<path class="st3" d="M62.2,172.4c-3.1,8.6-11.8,21.4-17.4,29.2c3.8,0.6,11.9,1.4,17.4-1.3c0,0,8.3,3.9,18.8,0.8
							C65.7,184.1,62.2,172.4,62.2,172.4z"/>
						<path class="st2" d="M84.5,193c-12.9-8.9-22.7-26.6-22.7-26.6c-3.5,9.7-15.6,25.5-20.5,29.3c0,0,3.7,1.3,6.7,1.1l-2.8,1.9
							c0,0,10.2,3,17-0.2c0,0,0.1,0,0.1,0c6.9,3,18-0.2,18-0.2l-3.9-2.4C80.5,195.7,84.5,193,84.5,193z"/>
						<path class="st3" d="M76.4,186.9c0.3-0.1,0.5-0.1,0.7-0.2c-9.1-9.1-15.4-20.4-15.4-20.4c-2.3,6.3-8.2,15.2-13.4,21.7
							c3.1,0.3,10.1,1.5,13.6-1.4C62,186.6,67.2,188.9,76.4,186.9z"/>
						<path class="st2" d="M78.6,180.8c-8.2-3.7-16.9-19.5-16.9-19.5c-2.6,7.2-10.9,18.7-15.1,21.2c0,0,2.2,1.6,5.1,1.4l-2.4,1.5
							c0,0,8,2.1,12.8-0.4l0,0c4.9,2.4,14.5-0.5,14.5-0.5l-2.9-1.5C76.7,182.9,78.6,180.8,78.6,180.8z"/>
					</g>
				</g>
				<g>
					<g>
						<path class="st0" d="M671,226.6c3.9-5.4,6-16.9,5.6-24c2-0.1,5.8-0.2,5.8-0.2l0,0c0,0,1.9,15.8,5.9,23.3
							C688.5,229.1,671.2,229.9,671,226.6z"/>
						<path class="st1" d="M682.4,202.4L682.4,202.4c0,0,1,7.9,2.9,15.2c-2.8,1-6.7,1.5-10.5,0.2c1.4-5.1,2-11,1.8-15.2
							C678.6,202.5,682.4,202.4,682.4,202.4z"/>
					</g>
					<g>
						<path class="st2" d="M656.8,207.6c18.2-20.9,21.5-35.3,21.5-35.3c5,11.7,21.4,30.6,24.1,34.1c-2.1,1.3-4.2,1.9-6.4,1.7
							l4.6,2.9c0,0-8.7,4.5-19.9,0.4c0,0,0,0,0,0c-10.7,5.2-21.5,1.6-21.5,1.6l4.9-3.2C659,209.5,656.8,207.6,656.8,207.6z"/>
						<path class="st3" d="M678.4,172.3c3.6,8.4,13.1,20.6,19.2,28.1c-3.8,0.8-11.8,2.1-17.5-0.2c0,0-8,4.4-18.7,2
							C675.6,184.3,678.4,172.3,678.4,172.3z"/>
						<path class="st2" d="M657.4,194.3c12.3-9.7,21-27.9,21-27.9c4.1,9.5,17.1,24.5,22.3,28c0,0-3.6,1.5-6.7,1.5l2.9,1.7
							c0,0-10,3.6-17,0.8c0,0-0.1,0-0.1,0c-6.7,3.5-18,0.9-18,0.9l3.7-2.7C661.6,196.8,657.4,194.3,657.4,194.3z"/>
						<path class="st3" d="M665.1,187.8c-0.3,0-0.5-0.1-0.7-0.2c8.5-9.6,14.1-21.3,14.1-21.3c2.6,6.2,9.1,14.7,14.7,20.8
							c-3.1,0.5-10,2.1-13.6-0.6C679.5,186.6,674.4,189.1,665.1,187.8z"/>
						<path class="st2" d="M662.5,181.7c8-4.2,15.6-20.5,15.6-20.5c3,7,12,18,16.4,20.2c0,0-2.1,1.7-5,1.7l2.5,1.4
							c0,0-7.8,2.6-12.8,0.4l0,0c-4.7,2.7-14.5,0.4-14.5,0.4l2.8-1.7C664.6,183.7,662.5,181.7,662.5,181.7z"/>
					</g>
				</g>
				<g>
					<g>
						<path class="st0" d="M587.9,218.7c-2.5-6.2-1.7-17.9,0.5-24.7c-1.9-0.6-5.6-1.6-5.6-1.6l0,0c0,0-5.7,14.9-11.4,21.2
							C570.3,216.8,586.9,221.9,587.9,218.7z"/>
						<path class="st1" d="M582.8,192.4L582.8,192.4c0,0-2.9,7.5-6.6,14c2.5,1.7,6.1,3.1,10.2,2.7c-0.1-5.3,0.7-11.1,2-15.2
							C586.4,193.5,582.8,192.4,582.8,192.4z"/>
					</g>
					<g>
						<path class="st2" d="M606.3,203.8c-12.5-24.7-12.3-39.5-12.3-39.5c-7.7,10.1-28.2,24.5-31.7,27.2c1.7,1.8,3.6,2.9,5.8,3.2
							l-5.2,1.7c0,0,7.3,6.5,19.2,5.3c0,0,0,0,0,0c9.1,7.6,20.5,6.8,20.5,6.8l-4-4.3C603.7,205,606.3,203.8,606.3,203.8z"/>
						<path class="st3" d="M594,164.3c-5.6,7.3-17.8,16.8-25.4,22.5c3.5,1.7,10.9,4.9,17,4c0,0,6.7,6.2,17.6,6.5
							C593.8,176.5,594,164.3,594,164.3z"/>
						<path class="st2" d="M609,190.7c-9.6-12.4-13.6-32.2-13.6-32.2c-6.3,8.2-22.6,19.6-28.4,21.7c0,0,3.1,2.3,6.1,3.1l-3.3,0.9
							c0,0,8.8,5.9,16.3,4.9c0,0,0.1,0,0.1,0c5.6,5,17.2,5.3,17.2,5.3l-2.9-3.5C604.3,192.1,609,190.7,609,190.7z"/>
						<path class="st3" d="M603.1,182.5c0.3,0,0.5,0,0.7,0c-5.9-11.4-8.5-24.1-8.5-24.1c-4.1,5.3-12.4,12-19.3,16.6
							c2.9,1.3,9.2,4.5,13.4,2.8C589.5,177.8,593.8,181.5,603.1,182.5z"/>
						<path class="st2" d="M607.1,177.3c-6.7-6-10.2-23.7-10.2-23.7c-4.6,6.1-16.1,14.5-20.9,15.6c0,0,1.6,2.1,4.4,2.8l-2.8,0.7
							c0,0,6.9,4.5,12.3,3.5l0,0c3.9,3.7,14,3.9,14,3.9l-2.3-2.3C604.6,178.7,607.1,177.3,607.1,177.3z"/>
					</g>
				</g>
			</g>
			<g>
				<g>
					<g>
						<polygon class="st4" points="442.6,60.1 371.9,23.6 301.2,59.3 275,119.3 275,188.1 468.7,188.1 468.7,119.3 						"/>
						<g>
							<polygon class="st5" points="361,29.1 361,188.1 366.2,188.1 366.2,26.4 							"/>
							<polygon class="st5" points="396.9,188.1 402.1,188.1 402.1,39.2 396.9,36.5 							"/>
							<polygon class="st5" points="379,188.1 384.2,188.1 384.2,29.9 379,27.2 							"/>
							<polygon class="st5" points="432.8,55.1 432.8,188.1 438,188.1 438,57.8 							"/>
							<polygon class="st5" points="414.9,188.1 420.1,188.1 420.1,48.5 414.9,45.8 							"/>
							<polygon class="st5" points="304.5,188.1 309.8,188.1 309.8,54.9 304.5,57.6 							"/>
							<polygon class="st5" points="286.6,92.8 286.6,188.1 291.8,188.1 291.8,80.8 							"/>
							<polygon class="st5" points="450.8,78.6 450.8,188.1 456,188.1 456,90.5 							"/>
							<polygon class="st5" points="340.4,188.1 345.7,188.1 345.7,36.8 340.4,39.5 							"/>
							<polygon class="st5" points="322.5,188.1 327.7,188.1 327.7,45.9 322.5,48.5 							"/>
						</g>
						<polygon class="st5" points="442.6,60.1 371.9,23.6 301.2,59.3 275,119.3 275,128.6 304.5,61.9 371.9,27.9 438,62.1 
							468.7,131.5 468.7,119.3 						"/>
					</g>
					<g>
						<polygon class="st6" points="275,121.1 263.3,115 291.1,51.4 371.9,11.4 452.2,51.9 480.1,115.9 468.7,121.1 442.6,60.1 
							371.9,23.6 301.2,59.3 						"/>
						<polygon class="st7" points="292.9,53.9 371.9,13.9 450.4,54.4 477.2,117.2 480.1,115.9 452.2,51.9 371.9,11.4 291.1,51.4 
							263.3,115 266.1,116.5 						"/>
					</g>
					<rect x="279.6" y="112.1" class="st5" width="183.4" height="4.2"/>
					<g>
						<rect x="324.2" y="118.9" class="st6" width="95.9" height="67"/>
						<path class="st7" d="M420.1,121.7l-2.3-1.7l-22,30.2l-22-30.2l-1.7,1.2l-1.7-1.2l-22,30.2l-22-30.2l-2.3,1.6v5.1l20.7,28.4
							l-20.7,28.4v2.3h5.5l18.8-25.8l18.8,25.8h9.9l18.8-25.8l18.8,25.8h5.5v-2.2l-20.7-28.5l20.7-28.5V121.7z M372.1,182.8
							L352,155.2l20.1-27.6l20.1,27.6L372.1,182.8z"/>
						<g>
							<path class="st7" d="M322.9,118.7v67H373v-67H322.9z M367.5,180.7h-39v-57.1h39V180.7z"/>
							<path class="st7" d="M370.8,118.7v67h50.1v-67H370.8z M415.3,180.7h-39v-57.1h39V180.7z"/>
							<path class="st8" d="M321.1,116.2v71.9h53.8v-71.9H321.1z M368.9,182.8H327v-61.3h41.9V182.8z"/>
							<path class="st8" d="M368.9,116.2v71.9h53.8v-71.9H368.9z M416.8,182.8h-41.9v-61.3h41.9V182.8z"/>
							
								<rect x="345.5" y="111" transform="matrix(0.8088 -0.5881 0.5881 0.8088 -23.0039 234.0737)" class="st8" width="5.8" height="82.7"/>
							
								<rect x="307.1" y="149.5" transform="matrix(0.588 -0.8089 0.8089 0.588 20.2844 344.6444)" class="st8" width="82.7" height="5.8"/>
							
								<rect x="392.9" y="111" transform="matrix(0.8088 -0.5881 0.5881 0.8088 -13.9449 261.9353)" class="st8" width="5.8" height="82.7"/>
							
								<rect x="354.4" y="149.5" transform="matrix(0.588 -0.8089 0.8089 0.588 39.7984 382.9553)" class="st8" width="82.7" height="5.8"/>
							<path class="st8" d="M422.5,120.7l-4.7-3.4l-22,30.2l-22-30.2l-1.7,1.2l-1.7-1.2l-22,30.2l-22-30.2l-4.7,3.4l23.1,31.8
								l-23.1,31.8l4.7,3.4l22-30.2l22,30.2l1.7-1.2l1.7,1.2l22-30.2l22,30.2l4.7-3.4l-23.1-31.8L422.5,120.7z M372.1,180.1
								L352,152.4l20.1-27.6l20.1,27.6L372.1,180.1z"/>
							<path class="st9" d="M321.1,116.2v71.9h101.7v-71.9H321.1z M420.9,186.2h-98v-68.1h98V186.2z"/>
						</g>
					</g>
					<g>
						<rect x="353.5" y="54.6" class="st6" width="36.4" height="37"/>
						<polygon class="st7" points="389.9,59 387,56.1 371.7,71.1 356.4,56.1 353.5,59 353.5,60.2 368.1,74.6 353.5,88.9 353.5,90.1 
							354.9,91.6 357.8,91.6 371.7,78 385.5,91.6 388.4,91.6 389.9,90.1 389.9,88.9 375.2,74.6 389.9,60.2 						"/>
						<path class="st8" d="M352.7,54.1v38h38v-38H352.7z M385.6,87.1h-27.9V59.2h27.9V87.1z"/>
						
							<rect x="369.2" y="49.2" transform="matrix(0.7006 -0.7135 0.7135 0.7006 59.0993 287.0876)" class="st8" width="5" height="47.8"/>
						<polygon class="st8" points="389.9,57.5 387,54.6 353.5,87.5 353.5,88.7 356.4,91.6 389.9,58.7 						"/>
						<path class="st9" d="M352.7,54.1v38h38v-38H352.7z M389.1,90.6h-34.9V55.7h34.9V90.6z"/>
					</g>
				</g>
				<g>
					
						<rect x="255.9" y="158.3" transform="matrix(0.9922 -0.1249 0.1249 0.9922 -19.9737 33.6448)" class="st8" width="4.9" height="35.7"/>
					
						<rect x="297" y="153.1" transform="matrix(0.9922 -0.1249 0.1249 0.9922 -19.0113 38.7337)" class="st8" width="4.9" height="35.7"/>
					
						<rect x="215.1" y="163.4" transform="matrix(0.9922 -0.1249 0.1249 0.9922 -20.9402 28.589)" class="st8" width="4.9" height="35.7"/>
					
						<rect x="214.1" y="172.1" transform="matrix(0.9922 -0.1248 0.1248 0.9922 -19.9857 28.3837)" class="st9" width="4.9" height="3.2"/>
					
						<rect x="216.4" y="190.2" transform="matrix(0.9922 -0.1246 0.1246 0.9922 -22.1857 28.7597)" class="st9" width="4.9" height="3.2"/>
					
						<rect x="255" y="167" transform="matrix(0.9921 -0.1251 0.1251 0.9921 -19.0656 33.5275)" class="st9" width="4.9" height="3.2"/>
					
						<rect x="257.3" y="185" transform="matrix(0.9922 -0.1249 0.1249 0.9922 -21.2743 33.8992)" class="st9" width="4.9" height="3.2"/>
					
						<rect x="296" y="161.8" transform="matrix(0.9922 -0.1248 0.1248 0.9922 -18.059 38.5196)" class="st9" width="4.9" height="3.2"/>
					
						<rect x="298.3" y="179.8" transform="matrix(0.9922 -0.1249 0.1249 0.9922 -20.3078 38.98)" class="st9" width="4.9" height="3.2"/>
					
						<rect x="210.3" y="163.6" transform="matrix(0.9922 -0.1249 0.1249 0.9922 -18.727 33.4072)" class="st8" width="93.6" height="4.9"/>
					
						<rect x="210.1" y="163.7" transform="matrix(0.9922 -0.1249 0.1249 0.9922 -18.4827 33.3631)" class="st9" width="93.6" height="0.9"/>
					
						<rect x="212.6" y="181.7" transform="matrix(0.9922 -0.1249 0.1249 0.9922 -20.9703 33.8359)" class="st8" width="93.6" height="4.9"/>
					
						<rect x="212.3" y="181.7" transform="matrix(0.9922 -0.1249 0.1249 0.9922 -20.7259 33.7918)" class="st9" width="93.6" height="0.9"/>
				</g>
				<g>
					
						<rect x="466" y="173" transform="matrix(0.1242 -0.9923 0.9923 0.1242 249.6864 633.8514)" class="st8" width="35.7" height="4.9"/>
					
						<rect x="507.1" y="178.2" transform="matrix(0.1241 -0.9923 0.9923 0.1241 280.5449 679.0565)" class="st8" width="35.7" height="4.9"/>
					
						<rect x="425.2" y="167.9" transform="matrix(0.1241 -0.9923 0.9923 0.1241 218.9857 588.834)" class="st8" width="35.7" height="4.9"/>
					
						<rect x="442.4" y="160.4" transform="matrix(0.1242 -0.9923 0.9923 0.1242 227.2872 583.1198)" class="st9" width="3.2" height="4.9"/>
					
						<rect x="440.1" y="178.4" transform="matrix(0.1237 -0.9923 0.9923 0.1237 207.6101 596.7859)" class="st9" width="3.2" height="4.9"/>
					
						<rect x="483.2" y="165.5" transform="matrix(0.1241 -0.9923 0.9923 0.1241 258.0399 628.1654)" class="st9" width="3.2" height="4.9"/>
					
						<rect x="481" y="183.5" transform="matrix(0.1243 -0.9922 0.9922 0.1243 238.0995 641.6873)" class="st9" width="3.2" height="4.9"/>
					
						<rect x="524.3" y="170.6" transform="matrix(0.1236 -0.9923 0.9923 0.1236 289.1304 673.4802)" class="st9" width="3.2" height="4.9"/>
					
						<rect x="522" y="188.6" transform="matrix(0.1237 -0.9923 0.9923 0.1237 269.2201 687.0287)" class="st9" width="3.2" height="4.9"/>
					
						<rect x="482.7" y="118.6" transform="matrix(0.1241 -0.9923 0.9923 0.1241 260.7903 626.2948)" class="st8" width="4.9" height="93.6"/>
					
						<rect x="485" y="116.6" transform="matrix(0.1241 -0.9923 0.9923 0.1241 262.9711 624.8035)" class="st9" width="0.9" height="93.6"/>
					
						<rect x="480.4" y="136.7" transform="matrix(0.1241 -0.9923 0.9923 0.1241 240.8525 639.9022)" class="st8" width="4.9" height="93.6"/>
					<polygon class="st9" points="529.5,187.8 436.6,176.2 436.7,175.3 529.6,186.9 					"/>
				</g>
			</g>
		</g>
		<g>
			<path class="st2" d="M65.2,224.2c-22.9,0-44.8,2.4-65.2,6.8v76.7h252.6C226.7,259.2,152.6,224.2,65.2,224.2z"/>
			<path class="st2" d="M684.8,224.2c22.9,0,44.8,2.4,65.2,6.8v76.7H497.4C523.3,259.2,597.4,224.2,684.8,224.2z"/>
			<g>
				<path class="st2" d="M688.8,307.7C672,235.9,537.3,180,373.5,180c-163.7,0-298.5,55.9-315.2,127.7H688.8z"/>
			</g>
			<g>
				<g>
					<ellipse class="st3" cx="278.2" cy="192.9" rx="22.1" ry="4.8"/>
					<g>
						<path class="st2" d="M259.8,192.9c0,0-4-4.4-1.9-9.7c2.1-5.3,8.4-4.5,8.4-4.5s-1.8-6,5.1-8.5c7-2.5,10.7,5.5,10.7,5.5
							s0.4-4,3.6-3.7c3.2,0.3,2,5.1,0.7,6.1c0,0,3.6-3.6,5.9-0.5c2.3,3.1-3.4,3.7-3.4,3.7s5-0.9,6.7,2.4c1.6,3.2-1.2,4.8-1.2,4.8
							s3.7-1.6,4.7,0.5c1,2.1-5.1,3.6-5.1,3.6L259.8,192.9z"/>
						<path class="st10" d="M260.3,184.8c1.9-3,8.8-3.5,8.8-3.5s-1.8-3.8,0.6-6.4c2.5-2.6,9-1.2,10.9,2.4c0,0,2.2-1.4,3.8-1.2
							s1.5,4.1,1.5,4.1s0.5-1.9,2.5-1.2c2,0.7-0.2,3.1-0.2,3.1s3.3-0.1,4.8,2.1c1.5,2.2-0.9,5.5-0.9,5.5s4.5-1.8,5.1,1.6l0,0
							c1.3-0.6,2.3-1.5,1.8-2.4c-1-2.1-4.7-0.5-4.7-0.5s2.8-1.6,1.2-4.8c-1.4-2.7-5.2-2.5-6.3-2.4c1.2-0.2,5-1,3.1-3.6
							c-2-2.7-4.9-0.3-5.7,0.3c1.2-1.3,2.2-5.7-0.9-6c-3.2-0.3-3.6,3.7-3.6,3.7s-3.8-7.9-10.7-5.5c-7,2.5-5.1,8.5-5.1,8.5
							s-6.3-0.9-8.4,4.5c-2.1,5.3,1.9,9.7,1.9,9.7S258.4,187.9,260.3,184.8z"/>
					</g>
				</g>
				<g>
					<ellipse class="st3" cx="192.9" cy="240.3" rx="33.3" ry="7.2"/>
					<g>
						<path class="st2" d="M165.1,240.3c0,0-6.1-6.6-2.9-14.7c3.2-8.1,12.7-6.8,12.7-6.8s-2.8-9.1,7.8-12.8
							c10.5-3.7,16.2,8.3,16.2,8.3s0.6-6,5.4-5.6c4.8,0.4,3,7.7,1,9.3c0,0,5.5-5.5,8.9-0.8c3.4,4.7-5.1,5.6-5.1,5.6s7.6-1.3,10,3.6
							c2.5,4.9-1.7,7.3-1.7,7.3s5.6-2.4,7.1,0.8c1.5,3.2-7.7,5.4-7.7,5.4L165.1,240.3z"/>
						<path class="st10" d="M165.9,228.1c2.9-4.6,13.3-5.3,13.3-5.3s-2.8-5.7,1-9.6c3.7-3.9,13.6-1.8,16.5,3.7c0,0,3.3-2.1,5.7-1.8
							c2.4,0.4,2.2,6.2,2.2,6.2s0.7-2.8,3.8-1.8c3,1.1-0.3,4.7-0.3,4.7s5-0.1,7.2,3.2c2.3,3.3-1.3,8.3-1.3,8.3s6.8-2.8,7.7,2.4l0,0
							c1.9-0.9,3.5-2.2,2.8-3.6c-1.5-3.2-7.1-0.8-7.1-0.8s4.2-2.4,1.7-7.3c-2.1-4.1-7.8-3.8-9.6-3.6c1.8-0.3,7.6-1.5,4.6-5.5
							c-2.9-4.1-7.4-0.5-8.6,0.5c1.9-2,3.3-8.6-1.3-9c-4.8-0.4-5.4,5.6-5.4,5.6s-5.7-12-16.2-8.3c-10.5,3.7-7.8,12.8-7.8,12.8
							s-9.5-1.3-12.7,6.8c-3.2,8.1,2.9,14.7,2.9,14.7S163,232.7,165.9,228.1z"/>
					</g>
				</g>
				<g>
					<ellipse class="st3" cx="42.4" cy="254.1" rx="33.3" ry="7.2"/>
					<g>
						<path class="st2" d="M14.6,254.1c0,0-6.1-6.6-2.9-14.7c3.2-8.1,12.7-6.8,12.7-6.8s-2.8-9.1,7.8-12.8
							c10.5-3.7,16.2,8.3,16.2,8.3s0.6-6,5.4-5.6c4.8,0.4,3,7.7,1,9.3c0,0,5.5-5.5,8.9-0.8c3.4,4.7-5.1,5.6-5.1,5.6s7.6-1.3,10,3.6
							c2.5,4.9-1.7,7.3-1.7,7.3s5.6-2.4,7.1,0.8c1.5,3.2-7.7,5.4-7.7,5.4L14.6,254.1z"/>
						<path class="st10" d="M15.4,242c2.9-4.6,13.3-5.3,13.3-5.3s-2.8-5.7,1-9.6c3.7-3.9,13.6-1.8,16.5,3.7c0,0,3.3-2.1,5.7-1.8
							c2.4,0.4,2.2,6.2,2.2,6.2s0.7-2.8,3.8-1.8c3,1.1-0.3,4.7-0.3,4.7s5-0.1,7.2,3.2c2.3,3.3-1.3,8.3-1.3,8.3s6.8-2.8,7.7,2.4l0,0
							c1.9-0.9,3.5-2.2,2.8-3.6c-1.5-3.2-7.1-0.8-7.1-0.8s4.2-2.4,1.7-7.3c-2.1-4.1-7.8-3.8-9.6-3.6c1.8-0.3,7.6-1.5,4.6-5.5
							c-2.9-4.1-7.4-0.5-8.6,0.5c1.9-2,3.3-8.6-1.3-9c-4.8-0.4-5.4,5.6-5.4,5.6s-5.7-12-16.2-8.3c-10.5,3.7-7.8,12.8-7.8,12.8
							s-9.5-1.3-12.7,6.8c-3.2,8.1,2.9,14.7,2.9,14.7S12.5,246.6,15.4,242z"/>
					</g>
				</g>
				<g>
					<ellipse class="st3" cx="545.2" cy="268.1" rx="45.3" ry="9.8"/>
					<g>
						<path class="st2" d="M507.4,268.1c0,0-8.3-9-4-19.9c4.3-11,17.2-9.2,17.2-9.2s-3.8-12.4,10.5-17.4c14.3-5.1,22,11.3,22,11.3
							s0.8-8.2,7.3-7.6c6.6,0.6,4.1,10.5,1.4,12.6c0,0,7.4-7.5,12-1c4.6,6.4-7,7.6-7,7.6s10.3-1.8,13.7,4.9c3.3,6.7-2.4,9.9-2.4,9.9
							s7.6-3.3,9.7,1c2,4.3-10.4,7.3-10.4,7.3L507.4,268.1z"/>
						<path class="st10" d="M508.5,251.6c3.9-6.2,18-7.2,18-7.2s-3.8-7.8,1.3-13.1c5.1-5.3,18.5-2.4,22.4,5c0,0,4.5-2.9,7.7-2.4
							c3.2,0.5,3,8.4,3,8.4s1-3.8,5.1-2.4c4.1,1.4-0.4,6.4-0.4,6.4s6.7-0.2,9.8,4.4c3.1,4.5-1.8,11.2-1.8,11.2s9.2-3.7,10.4,3.3l0,0
							c2.6-1.3,4.7-3,3.8-5c-2-4.3-9.7-1-9.7-1s5.7-3.3,2.4-9.9c-2.8-5.6-10.7-5.2-13-5c2.4-0.4,10.3-2,6.3-7.5
							c-4-5.5-10.1-0.7-11.7,0.7c2.5-2.7,4.5-11.7-1.8-12.2c-6.6-0.6-7.3,7.6-7.3,7.6s-7.7-16.3-22-11.3
							c-14.3,5.1-10.5,17.4-10.5,17.4s-12.9-1.7-17.2,9.2c-4.3,11,4,19.9,4,19.9S504.6,257.9,508.5,251.6z"/>
					</g>
				</g>
				<g>
					<ellipse class="st3" cx="706.9" cy="258.1" rx="33" ry="7.2"/>
					<g>
						<path class="st2" d="M679.4,258.1c0,0-6-6.5-2.9-14.5c3.1-8,12.5-6.7,12.5-6.7s-2.7-9,7.7-12.7c10.4-3.7,16,8.2,16,8.2
							s0.5-5.9,5.3-5.5c4.8,0.4,3,7.6,1,9.2c0,0,5.4-5.4,8.8-0.8c3.4,4.7-5.1,5.5-5.1,5.5s7.5-1.3,9.9,3.5c2.4,4.8-1.7,7.2-1.7,7.2
							s5.6-2.4,7,0.8c1.5,3.1-7.6,5.3-7.6,5.3L679.4,258.1z"/>
						<path class="st10" d="M680.2,246.1c2.8-4.5,13.1-5.3,13.1-5.3s-2.7-5.7,1-9.5c3.7-3.8,13.5-1.7,16.3,3.7c0,0,3.3-2.1,5.6-1.7
							c2.3,0.3,2.2,6.1,2.2,6.1s0.7-2.8,3.7-1.7c3,1-0.3,4.7-0.3,4.7s4.9-0.1,7.2,3.2c2.2,3.3-1.3,8.2-1.3,8.2s6.7-2.7,7.6,2.4l0,0
							c1.9-0.9,3.4-2.2,2.7-3.6c-1.5-3.1-7-0.8-7-0.8s4.2-2.4,1.7-7.2c-2.1-4.1-7.8-3.8-9.5-3.6c1.7-0.3,7.5-1.5,4.6-5.5
							c-2.9-4-7.4-0.5-8.5,0.5c1.8-1.9,3.3-8.5-1.3-8.9c-4.8-0.4-5.3,5.5-5.3,5.5s-5.6-11.9-16-8.2c-10.4,3.7-7.7,12.7-7.7,12.7
							s-9.4-1.3-12.5,6.7c-3.1,8,2.9,14.5,2.9,14.5S677.3,250.6,680.2,246.1z"/>
					</g>
				</g>
			</g>
		</g>
	</g>
</g>
<g id="Artboard_1">
</g>
</svg>
